<?xml version="1.0" encoding="utf-8"?>
<!-- Generator: Adobe Illustrator 15.0.0, SVG Export Plug-In . SVG Version: 6.00 Build 0)  -->
<!DOCTYPE svg PUBLIC "-//W3C//DTD SVG 1.1//EN" "http://www.w3.org/Graphics/SVG/1.1/DTD/svg11.dtd">
<svg version="1.1" id="Layer_1" xmlns="http://www.w3.org/2000/svg" xmlns:xlink="http://www.w3.org/1999/xlink" x="0px" y="0px"
	 width="411.25px" height="102.237px" viewBox="0 0 411.25 102.237" enable-background="new 0 0 411.25 102.237"
	 xml:space="preserve">
<g>
	<path fill="#FFFFFF" d="M41.75,42.45c-15.167,0-32.338,16.772-36.021,29.418C4.338,72.388,3.5,72.7,3.5,72.7L0,80.2
		c0,0,1.733-0.771,5.092-2.078C5.828,85.171,11.263,88.2,18,88.2c14.75,0,24-8,24-8l2.25-7c0,0-10.344,7-20,7
		c-5.227,0-8.173-1.331-7.525-6.299c2.701-0.922,5.705-1.91,9.025-2.951C42.5,65.7,51.5,58.2,51.5,49.95
		C51.5,45.95,48.75,42.45,41.75,42.45z M40.583,52.271C40.064,55.479,37.5,60.2,26.5,64.2c-2.248,0.817-4.793,1.751-7.35,2.693
		C23.354,58.879,32.263,49.45,38,49.45C39.986,49.45,40.856,50.577,40.583,52.271z"/>
	<path fill="#FFFFFF" d="M100,62.95c5.686-13.829,21-44,21-44l-9.5-3.5c0,0-8.76,19.098-14.254,31.771
		c-1.419-2.139-4.193-4.771-7.496-4.771c-17.094,0-35.75,18.875-36.75,34c-0.527,7.982,4.5,11.75,10.25,11.75
		c9.338,0,17.113-6.953,22.818-14.522C83.457,81.555,83.071,88.2,90.25,88.2c12.25,0,18.5-9.5,18.5-9.5l1.25-5.25
		c0,0-8.49,5.057-11.732,5.25C94,78.954,94.347,76.702,100,62.95z M69,78.95c-3.455,0-5.75-0.5-3.75-7.5
		c2.261-7.913,16-22.6,24.02-22.6c2.793,0,4.902,1.236,6.311,2.26c-0.395,0.933-0.76,1.807-1.08,2.59C90,64.7,78.25,78.95,69,78.95z
		"/>
	<path fill="#FFFFFF" d="M157.75,70.45C159.892,66.077,169,49.7,169,49.7l-8-3.5c0,0-19,26.25-28.5,28.75
		c-3.813,1.004-2.642-3.213,0.5-9.625c2.46-5.021,11.5-21.375,11.5-21.375l-7.75-3.5c0,0-13.199,23.138-17.913,34.5
		c-2.898,6.988-2.321,13.25,3.413,13.25c8.466,0,20.034-11.699,26.374-18.929c-1.27,2.573-2.397,4.981-3.223,6.972
		c-2.523,6.084-2.017,11.313,2.973,11.537C157.75,88.2,166,80.2,166,80.2l3-7.25c0,0-3.137,2.824-11.41,5
		C154.27,78.824,155.015,76.034,157.75,70.45z"/>
	<polygon fill="#FFFFFF" points="335.107,50.843 306.668,14 291.001,14 319.44,50.843 279,102.237 294.667,102.237 	"/>
</g>
<g>
	<polygon fill="#FFFFFF" points="341.133,46.99 378.107,0 362.44,0 333.375,36.938 	"/>
	<polygon fill="#FFFFFF" points="222.5,14.45 222.5,63.631 191.75,14.45 177.5,14.45 177.5,88.2 191.75,88.2 191.75,39.145 
		222.5,88.2 236.75,88.2 236.75,14.45 	"/>
	<polygon fill="#FFFFFF" points="411.25,14.45 374.5,14.45 365.5,26.95 382.5,26.95 382.5,88.2 396.75,88.2 396.75,26.95 
		411.25,26.95 	"/>
	<polygon fill="#FFFFFF" points="262.75,75.7 262.75,55.95 284.5,55.95 284.5,43.45 262.75,43.45 262.75,26.95 288.25,26.95 
		288.25,14.45 248.5,14.45 248.5,88.2 282.25,88.2 291.25,75.7 	"/>
	<polygon fill="#FFFFFF" points="332.732,65.299 350.439,88.237 366.106,88.237 340.642,55.248 	"/>
</g>
</svg>
